<svg id="Layer_1" data-name="Layer 1" xmlns="http://www.w3.org/2000/svg" viewBox="0 0 177.43 76.79"><defs><style>.cls-1{fill:#fff;}.cls-2,.cls-4{fill:#fab24c;}.cls-3{fill:#04a49c;}.cls-4{font-size:45.26px;font-family:MyriadPro-Regular, Myriad Pro;}.cls-5{letter-spacing:-0.03em;}</style></defs><title>Sesama Care logo bg white</title><rect class="cls-1" width="177.43" height="76.79" rx="12.77"/><g id="Layer_3" data-name="Layer 3"><path class="cls-2" d="M292.83,170.4a14.05,14.05,0,0,1-.68,4.32h0a14.16,14.16,0,0,1-13.5,9.87h-.18c-7.05,0-7.15,7.66-7.15,7.66a14.17,14.17,0,0,1-9.87,13.5,6.77,6.77,0,0,1-.3-2v-5.5a7.06,7.06,0,0,0,2.71-5.57,6.67,6.67,0,0,0-.12-1.27v0c-.29-4.51,1-7.56,2.93-9.61a10.75,10.75,0,0,1,1.77-1.5c4.38-3,10.21-2.74,10.21-2.74a7.09,7.09,0,0,0,5.85-3.08h0a7.11,7.11,0,0,0,1.25-4,8.1,8.1,0,0,0-.72-3.11h0a7,7,0,0,0-6.36-4H256.74a7.08,7.08,0,0,0-7.09,7.08v22.25a7.08,7.08,0,0,0,4.77,6.69l0,4a13.76,13.76,0,0,0,.3,2.89,14.17,14.17,0,0,1-11.76-14l.1-20.14,0-3.5a14.16,14.16,0,0,1,14.05-12.37h21.5a14.17,14.17,0,0,1,13.87,11.26h0A13.92,13.92,0,0,1,292.83,170.4Z" transform="translate(-226.18 -149.18)"/><path class="cls-3" d="M304.24,181.47a14.17,14.17,0,0,1-14.17,14.18h-.18c-7.05,0-7.15,7.66-7.15,7.66a14.17,14.17,0,0,1-28,2.9h0a13.78,13.78,0,0,1-.3-2.9l0-4h0v0l.28.07c-.09,0-.19,0-.28-.09l.08-16.15,0-3.5a14.16,14.16,0,0,1,14-12.37H285a7.06,7.06,0,0,1-.51,7.09H268.2a7.08,7.08,0,0,0-7.09,7.08v16.74l-.46.34a4.84,4.84,0,0,0,.46-.33v5.5a6.72,6.72,0,0,0,.3,2h0a7.08,7.08,0,0,0,13.87-2,6.67,6.67,0,0,0-.12-1.27v0c-.29-4.51,1-7.56,2.93-9.61a10.75,10.75,0,0,1,1.77-1.5c4.38-3.05,10.21-2.74,10.21-2.74a7.09,7.09,0,0,0,2.05-13.87,14.1,14.1,0,0,0,.66-4.29,13.76,13.76,0,0,0-.3-2.89A14.17,14.17,0,0,1,304.24,181.47Z" transform="translate(-226.18 -149.18)"/></g><text class="cls-4" transform="translate(84.54 49.06)"><tspan class="cls-5">F</tspan><tspan x="20.86" y="0">it</tspan><tspan class="cls-3" x="46.43" y="0">ly</tspan></text></svg>